<svg width="1258" height="578" viewBox="0 0 1258 578" fill="none" xmlns="http://www.w3.org/2000/svg">
<g clip-path="url(#clip0)">
<g clip-path="url(#clip1)">
<path d="M616.279 586.5C551.279 586.5 486.279 586.2 421.179 586.8C409.379 586.9 407.179 582.9 408.279 572.4C418.079 484.2 487.179 412.6 575.779 399.3C646.579 388.6 710.279 403.3 763.979 452.1C800.579 485.4 820.079 527.4 824.579 576.5C825.479 586.7 819.779 586.6 812.579 586.6C747.179 586.5 681.679 586.5 616.279 586.5Z" fill="#FF639D"/>
<path d="M616.279 586.5C551.279 586.5 486.279 586.2 421.179 586.8C409.379 586.9 407.179 582.9 408.279 572.4C418.079 484.2 487.179 412.6 575.779 399.3C646.579 388.6 710.279 403.3 763.979 452.1C800.579 485.4 820.079 527.4 824.579 576.5C825.479 586.7 819.779 586.6 812.579 586.6C747.179 586.5 681.679 586.5 616.279 586.5Z" fill="#FF639D"/>
<g clip-path="url(#clip2)">
<path d="M532.529 465.115C530.205 458.892 529.085 455.78 526.761 449.471C531.324 447.742 533.648 446.964 538.297 445.495C538.642 446.619 538.814 447.137 539.158 448.261C535.973 449.298 534.337 449.817 531.152 450.94C531.668 452.409 531.927 453.187 532.443 454.657C535.112 453.706 536.489 453.274 539.158 452.409C539.503 453.533 539.675 454.052 540.019 455.175C537.35 456.039 536.059 456.472 533.39 457.422C533.907 458.978 534.165 459.669 534.768 461.225C537.781 460.102 539.331 459.583 542.43 458.632C542.774 459.756 542.946 460.274 543.291 461.398C538.986 462.781 536.834 463.472 532.529 465.115Z" fill="white"/>
<path d="M556.377 457.595C554.569 455.694 553.622 454.743 551.642 452.842C550.953 455.434 550.609 456.731 549.92 459.324C548.456 459.756 547.682 459.929 546.218 460.361C547.251 456.472 547.854 454.484 549.059 450.681C546.218 448.088 544.754 446.792 541.741 444.371C543.291 443.939 544.066 443.68 545.701 443.248C547.509 444.976 548.37 445.841 550.178 447.569C550.867 445.149 551.211 443.939 551.9 441.519C553.45 441.087 554.225 440.914 555.86 440.569C554.569 444.199 553.88 446.014 552.675 449.73C555.688 452.496 557.152 453.879 559.993 456.731C558.615 457.077 557.841 457.249 556.377 457.595Z" fill="white"/>
<path d="M569.205 448.347C567.913 448.607 567.225 448.693 565.933 448.952C566.45 451.372 566.708 452.669 567.138 455.089C565.847 455.348 565.158 455.521 563.867 455.78C562.489 449.298 561.801 446.014 560.337 439.531C563.092 438.926 564.47 438.667 567.311 438.149C571.013 437.457 573.595 439.445 574.026 442.211C574.542 445.063 572.821 447.742 569.205 448.347ZM567.741 441.087C566.45 441.346 565.761 441.433 564.47 441.692C564.814 443.507 564.986 444.371 565.331 446.187C566.622 445.927 567.225 445.841 568.516 445.581C570.066 445.322 570.84 444.199 570.668 442.902C570.41 441.519 569.291 440.741 567.741 441.087Z" fill="white"/>
<path d="M588.834 451.891C588.317 450.767 588.059 450.162 587.543 449.039C585.132 449.298 583.927 449.471 581.516 449.817C581.258 451.027 581.172 451.632 580.913 452.842C579.536 453.014 578.847 453.101 577.47 453.36C578.933 446.359 579.708 442.902 581.516 435.988C582.635 435.815 583.152 435.815 584.271 435.642C587.629 441.952 589.264 445.149 592.364 451.545C590.9 451.632 590.211 451.718 588.834 451.891ZM583.496 440.655C582.894 443.162 582.635 444.458 582.033 446.964C583.754 446.705 584.615 446.619 586.337 446.446C585.218 444.112 584.702 442.902 583.496 440.655Z" fill="white"/>
<path d="M606.138 450.767C603.383 446.792 601.92 444.804 598.907 440.828C599.165 444.89 599.251 446.964 599.509 451.027C598.218 451.113 597.529 451.113 596.238 451.199C595.807 444.544 595.549 441.26 595.032 434.605C596.324 434.519 596.927 434.432 598.218 434.432C601.317 438.321 602.781 440.309 605.708 444.285C605.622 440.223 605.536 438.149 605.45 434.086C606.827 434.086 607.602 434 608.979 434C609.066 440.655 609.152 444.026 609.238 450.681C607.946 450.681 607.344 450.681 606.138 450.767Z" fill="white"/>
<path d="M625.509 449.471C624.304 450.508 622.668 450.94 620.946 450.854C618.536 450.767 617.244 450.767 614.834 450.681C614.92 444.026 614.92 440.655 615.006 434C617.589 434 618.966 434.086 621.549 434.173C623.443 434.259 625.079 434.864 626.284 435.988C628.178 437.976 627.834 440.223 627.662 442.729C627.489 445.236 627.575 447.656 625.509 449.471ZM623.701 438.149C623.099 437.457 622.324 437.025 621.119 437.025C620.085 437.025 619.569 436.939 618.45 436.939C618.364 441.26 618.277 443.421 618.191 447.829C619.224 447.829 619.741 447.829 620.688 447.915C621.807 447.915 622.668 447.656 623.271 446.964C623.96 446.273 624.132 445.063 624.218 442.556C624.39 440.05 624.39 438.926 623.701 438.149Z" fill="white"/>
<path d="M646.946 446.359C646.516 449.039 646.344 450.422 645.913 453.101C644.622 452.928 643.933 452.842 642.642 452.669C642.986 449.989 643.158 448.607 643.589 445.927C642.039 441.779 641.178 439.704 639.456 435.556C641.006 435.729 641.781 435.815 643.244 435.988C644.277 438.84 644.708 440.223 645.655 443.075C647.291 440.569 648.152 439.359 649.874 436.939C651.423 437.198 652.198 437.284 653.662 437.544C650.993 441.087 649.615 442.816 646.946 446.359Z" fill="white"/>
<path d="M665.026 455.089C663.562 455.953 662.013 456.299 660.119 455.867C658.225 455.434 656.933 454.57 655.986 453.187C654.609 451.199 655.039 449.125 655.556 446.359C656.072 443.507 656.417 441.433 658.483 440.137C659.947 439.272 661.668 438.927 663.649 439.359C665.715 439.791 667.092 440.828 668.039 442.211C669.417 444.285 668.9 446.273 668.211 449.125C667.523 451.891 667.092 453.879 665.026 455.089ZM665.026 443.507C664.682 442.902 663.993 442.384 663.046 442.124C662.099 441.952 661.238 442.124 660.635 442.557C659.86 443.075 659.516 443.853 658.913 446.964C658.311 450.076 658.311 450.94 658.827 451.718C659.172 452.323 659.86 452.842 660.807 453.014C661.668 453.187 662.529 453.014 663.132 452.582C663.907 452.064 664.251 451.372 665.026 448.174C665.801 444.977 665.543 444.372 665.026 443.507Z" fill="white"/>
<path d="M676.993 460.188C673.635 459.151 671.569 456.212 672.43 452.842C673.549 448.607 674.152 446.532 675.271 442.297C676.648 442.643 677.337 442.816 678.715 443.248C677.509 447.397 676.993 449.471 675.787 453.706C675.271 455.521 676.046 456.99 677.854 457.509C679.576 458.027 681.039 457.249 681.642 455.434C682.933 451.286 683.536 449.212 684.827 445.063C686.205 445.495 686.893 445.668 688.185 446.187C686.807 450.335 686.119 452.409 684.827 456.558C683.708 459.929 680.35 461.225 676.993 460.188Z" fill="white"/>
<path d="M696.794 466.929C696.536 463.991 696.364 462.435 696.019 459.497C695.072 459.151 694.642 458.978 693.695 458.632C692.748 461.139 692.317 462.349 691.37 464.855C690.079 464.423 689.476 464.164 688.185 463.732C690.423 457.422 691.542 454.311 693.695 448.001C696.45 448.952 697.741 449.471 700.496 450.508C704.026 451.891 705.145 454.916 704.112 457.422C703.251 459.583 701.271 460.361 699.463 460.274C699.893 463.559 700.066 465.201 700.324 468.399C698.946 467.88 698.258 467.534 696.794 466.929ZM699.377 453.187C698.085 452.669 697.483 452.496 696.278 451.977C695.675 453.619 695.331 454.484 694.728 456.126C695.933 456.558 696.536 456.817 697.827 457.336C699.291 457.854 700.496 457.422 701.013 456.212C701.443 455.002 700.754 453.706 699.377 453.187Z" fill="white"/>
<path d="M537.264 506.514L541.139 508.675L539.244 512.045C533.046 521.726 526.417 521.553 519.701 518.614L511.437 533.048L507.562 530.801L515.741 516.626L511.437 514.033C508.079 512.045 504.807 510.058 501.191 508.415L493.701 521.293C493.443 521.726 486.986 534.258 477.946 534.258C477.602 534.258 477.258 534.171 476.913 534.171C472.35 533.566 469.595 530.368 469.337 525.096C469.079 516.799 475.622 504.526 488.622 502.106C492.324 501.674 495.682 502.106 498.953 503.057L513.847 477.128L517.721 479.375L503.344 504.44C507.046 505.995 510.403 508.156 513.675 510.144L517.893 512.65L534.509 483.87C536.576 480.153 542.344 473.844 551.125 476.091L549.92 480.412C542.43 478.338 538.556 485.771 538.384 486.03L521.94 514.725C527.364 517.145 531.238 516.367 535.456 509.712L537.264 506.514ZM496.715 507.033C495.251 506.6 493.615 506.428 491.893 506.428C490.946 506.428 490.344 506.514 489.397 506.6C479.066 508.329 473.642 518.528 473.9 524.923C473.986 526.911 474.675 529.418 477.43 529.677C482.94 530.368 488.191 522.331 489.741 519.133L496.715 507.033Z" fill="white" stroke="white" stroke-width="0.7" stroke-miterlimit="10"/>
<path d="M563.006 520.256C561.542 520.17 560.079 519.824 558.874 519.046C556.807 522.676 554.138 525.788 550.523 527.43C549.059 528.121 547.509 528.467 545.96 528.467C544.238 528.467 542.43 528.035 540.88 527.257C537.867 525.961 535.887 523.8 534.94 520.861C533.476 516.367 534.854 510.317 539.158 502.884C543.549 495.105 546.993 492.945 551.297 492.08C554.225 491.389 558.874 491.994 561.801 495.105C563.781 497.093 565.589 501.242 563.35 508.243C562.92 509.539 562.059 512.132 560.854 514.898C561.628 515.416 562.403 515.675 563.178 515.675C564.297 515.675 566.364 515.416 567.913 512.65L568.344 511.873C570.926 507.638 571.443 506.428 571.529 506.428L575.403 508.502C575.403 508.588 574.801 509.798 572.218 514.206L571.787 514.984C569.807 518.355 566.708 520.17 563.264 520.17H563.006V520.256ZM548.628 523.281C551.297 521.985 553.622 519.305 555.516 515.675L555.258 515.157C553.536 511.268 554.913 506.428 558.96 504.18L559.821 503.748C560.079 501.674 559.821 499.6 558.529 498.13C557.238 496.834 555.43 496.315 553.794 496.315C553.191 496.315 552.761 496.402 552.244 496.488C550.092 496.92 547.423 497.612 543.032 505.131C539.417 511.44 538.211 516.28 539.244 519.478C539.761 521.034 540.88 522.244 542.774 523.108C544.754 524.059 546.734 524.146 548.628 523.281Z" fill="white" stroke="white" stroke-width="0.7" stroke-miterlimit="10"/>
<path d="M597.96 509.539C598.562 508.415 599.165 507.465 599.682 506.514L603.556 508.675C602.953 509.625 602.35 510.576 601.834 511.7L597.701 519.046C594.344 524.75 590.9 526.652 588.317 527.257C587.715 527.343 587.026 527.43 586.509 527.43C585.132 527.43 583.754 527.084 582.549 526.306C576.953 522.935 579.364 514.465 581.688 510.144L585.735 502.97C584.615 502.365 583.582 501.415 582.635 500.118C582.205 499.427 581.774 498.822 581.43 498.13L574.801 509.798L571.529 506.428L582.807 486.808L586.682 489.055C583.066 496.488 588.576 499.167 591.933 501.155L585.562 512.305C584.701 513.947 581.947 520.602 584.874 522.417C585.648 522.849 586.337 523.022 587.198 522.763C588.49 522.503 591.072 521.207 593.741 516.713L597.96 509.539Z" fill="white" stroke="white" stroke-width="0.7" stroke-miterlimit="10"/>
<path d="M616.47 519.046C613.715 523.627 610.529 526.306 607 527.084C606.311 527.257 605.708 527.343 605.019 527.343C601.92 527.343 599.596 526.047 598.821 525.442C593.569 521.639 595.549 514.033 597.529 510.23L607.086 493.636L610.96 495.883L601.49 512.391C600.801 513.688 600.37 514.984 600.198 516.194C599.768 518.182 599.682 520.429 601.49 521.726C602.092 522.158 603.814 523.195 606.052 522.849C608.377 522.331 610.529 520.343 612.509 516.885C613.112 515.935 613.543 515.33 613.887 514.379L614.231 513.86C615.523 511.786 616.384 509.885 617.158 508.588L618.364 506.6L622.238 508.761L621.033 510.835C620.258 512.132 619.311 514.033 618.019 516.108L617.761 516.626L616.47 519.046ZM615.609 488.796C615.609 490.438 614.231 491.907 612.509 491.907C610.788 491.907 609.324 490.525 609.324 488.796C609.324 487.067 610.702 485.598 612.509 485.598C614.231 485.598 615.609 487.067 615.609 488.796Z" fill="white" stroke="white" stroke-width="0.7" stroke-miterlimit="10"/>
<path d="M655.47 508.588C655.47 508.675 655.039 509.539 652.456 513.86L652.026 514.638C644.794 526.998 637.304 529.245 630.244 531.492C629.814 531.751 629.384 531.751 629.039 531.838C627.92 536.937 622.238 547.741 615.695 547.741H615.006C612.768 547.395 611.132 545.926 610.529 543.851C609.582 540.567 611.218 537.11 614.748 534.171C618.364 531.233 621.635 529.85 624.907 528.553C625.251 523.454 622.754 519.911 622.754 519.911L622.841 518.96C629.211 516.453 636.099 508.761 637.218 503.057C637.562 501.069 637.132 499.513 635.927 498.476C634.377 497.18 632.913 496.661 631.622 496.92C628.781 497.439 626.629 500.896 625.94 502.279L621.635 509.885L618.278 506.514L621.98 500.118C622.152 499.513 625.423 493.636 630.761 492.512C632.655 492.167 635.668 492.253 638.94 495.192C641.523 497.439 642.47 500.291 641.781 503.921C640.662 510.317 634.549 517.231 628.437 521.293C629.039 522.849 629.47 524.837 629.556 527.084C636.271 525.096 642.039 522.849 648.238 512.478L648.668 511.7L651.079 507.551L651.595 506.6L655.47 508.588ZM623.788 533.826C621.721 534.776 619.741 535.9 617.675 537.628C615.35 539.53 614.576 541.431 614.92 542.555C615.178 543.16 615.437 543.246 615.695 543.246C618.536 543.592 622.668 535.986 623.788 533.826Z" fill="white" stroke="white" stroke-width="0.7" stroke-miterlimit="10"/>
<path d="M677.251 520.256C675.788 520.17 674.324 519.824 673.119 519.046C671.052 522.676 668.384 525.788 664.768 527.43C663.304 528.121 661.754 528.467 660.205 528.467C658.483 528.467 656.675 528.035 655.125 527.257C652.112 525.961 650.132 523.8 649.185 520.861C647.721 516.367 649.099 510.317 653.403 502.884C657.794 495.105 661.238 492.945 665.542 492.08C668.47 491.389 673.119 491.994 676.046 495.105C678.026 497.093 679.834 501.242 677.595 508.243C677.165 509.539 676.304 512.132 675.099 514.898C675.874 515.416 676.648 515.675 677.423 515.675C678.542 515.675 680.609 515.416 682.158 512.65L682.589 511.873C685.172 507.638 685.688 506.428 685.774 506.428L689.648 508.502C689.648 508.588 689.046 509.798 686.463 514.206L686.033 514.984C684.052 518.355 680.953 520.17 677.509 520.17H677.251V520.256ZM662.96 523.281C665.629 521.985 667.953 519.305 669.847 515.675L669.589 515.157C667.867 511.268 669.244 506.428 673.291 504.18L674.152 503.748C674.41 501.674 674.152 499.6 672.86 498.13C671.569 496.834 669.761 496.315 668.125 496.315C667.523 496.315 667.092 496.402 666.576 496.488C664.423 496.92 661.754 497.612 657.364 505.131C653.748 511.44 652.542 516.28 653.576 519.478C654.092 521.034 655.211 522.244 657.105 523.108C658.999 524.059 660.98 524.146 662.96 523.281Z" fill="white" stroke="white" stroke-width="0.7" stroke-miterlimit="10"/>
<path d="M725.033 508.675L724.344 509.885C723.741 510.835 723.053 512.045 721.847 514.293L721.417 515.07C720.728 516.367 714.357 527.43 707.47 527.43C703.596 527.43 701.702 525.356 701.099 524.059C699.119 520.429 700.41 515.243 702.649 511.7C706.351 505.39 707.814 501.155 707.039 498.908C706.781 498.303 706.437 497.785 705.145 497.266C699.377 495.278 691.973 504.785 689.735 508.761L679.662 526.306L675.788 524.059L693.351 493.55L696.019 495.105C699.291 492.858 702.907 491.562 706.695 492.945C709.622 494.068 710.655 495.97 711.258 497.353C712.549 501.069 711.172 506.255 706.523 513.947C704.801 516.885 704.112 520.17 705.059 521.726C705.317 522.071 705.662 522.849 707.556 522.849C710.913 522.849 715.821 516.108 717.629 512.737L718.059 511.959C719.351 509.885 719.953 508.502 720.556 507.638L721.158 506.428L725.033 508.675Z" fill="white" stroke="white" stroke-width="0.7" stroke-miterlimit="10"/>
<path d="M737 508.848C739.668 512.478 742.768 516.367 741.39 521.466C740.443 524.923 737.86 527.516 733.986 528.553C732.695 528.813 731.662 528.986 730.715 528.986C727.96 528.986 725.635 528.121 723.827 526.393C721.933 524.318 721.331 521.726 722.192 518.614L726.496 519.911C726.066 521.207 726.324 522.331 727.099 523.281C728.39 524.578 730.629 524.837 732.867 524.232C733.986 523.973 736.397 523.022 737 520.429C737.947 517.491 735.708 514.811 733.384 511.7C731.317 508.934 729.079 505.823 728.821 502.106C728.046 503.23 727.701 503.748 727.701 503.835L724.258 509.971L720.9 506.6L723.741 501.588C725.894 497.439 731.748 490.698 738.549 492.945C738.635 493.031 738.807 493.031 738.894 493.031C738.894 493.118 738.894 493.118 738.98 493.118L738.291 494.933L737.516 497.353C737.172 497.266 736.827 497.266 736.569 497.266C735.966 497.266 735.45 497.353 734.933 497.698C734.072 498.217 733.556 499.254 733.297 501.069C733.039 503.575 734.933 506.168 737 508.848Z" fill="white" stroke="white" stroke-width="0.7" stroke-miterlimit="10"/>
</g>
</g>
<path fill-rule="evenodd" clip-rule="evenodd" d="M1282.08 494.142C1282.08 565.05 1224.86 622.533 1154.28 622.533C1128.21 622.533 1103.97 614.694 1083.76 601.233H1028.38C1012.89 614.516 992.806 622.533 970.862 622.533C945.679 622.533 922.945 611.974 906.792 595.014C896.564 616.875 874.521 632 848.979 632C813.688 632 785.079 603.126 785.079 567.508C785.079 531.891 813.688 503.017 848.979 503.017C862.007 503.017 874.125 506.952 884.229 513.709C893.06 473.736 928.494 443.85 970.862 443.85C993.35 443.85 1013.89 452.27 1029.53 466.149C1042.24 408.702 1093.27 365.75 1154.28 365.75C1224.86 365.75 1282.08 423.233 1282.08 494.142Z" fill="white"/>
<path fill-rule="evenodd" clip-rule="evenodd" d="M171.331 510.423C171.331 481.67 190.463 457.34 216.816 449.221C224.485 446.503 232.925 445 241.8 445C272.009 445 297.247 462.508 304.027 486.053C304.253 486.884 305.157 487.336 305.985 487.035C312.992 484.771 320.751 483.488 328.812 483.488C361.055 483.488 387.197 503.411 387.197 528.013C387.197 528.918 387.875 529.597 388.779 529.597C390.738 529.522 392.696 529.522 394.73 529.522C428.254 529.522 456.128 537.068 462.08 547.03C468.86 553.595 473.079 562.727 473.079 572.839V576.235C473.079 580.461 469.689 583.857 465.47 583.857H195.045C194.938 584.048 194.83 584.237 194.721 584.426H104.398C100.256 577.261 97.8972 569.008 97.8972 560.224C97.8972 532.72 121.027 510.423 149.559 510.423C157.405 510.423 164.843 512.109 171.503 515.126C171.389 513.573 171.331 512.005 171.331 510.423Z" fill="white"/>
<path opacity="0.7" fill-rule="evenodd" clip-rule="evenodd" d="M340.509 551.808C351.347 538.333 357.912 520.708 357.912 501.421C357.912 459.07 326.258 424.737 287.211 424.737C281.854 424.737 276.636 425.383 271.619 426.608C260.04 405.213 239.685 391.018 216.509 391.018C205.422 391.018 194.981 394.266 185.837 399.997C165.292 374.974 134.038 359 99.0351 359C37.1598 359 -13 408.916 -13 470.491C-13 482.62 -11.0538 494.296 -7.45531 505.228H-13V614H340.509V551.808Z" fill="white"/>
<path opacity="0.5" fill-rule="evenodd" clip-rule="evenodd" d="M941.07 327H1202.43C1203.51 321.008 1204.07 314.824 1204.07 308.5C1204.07 273.264 1186.57 242.349 1160.26 224.941C1145.89 214.409 1126.76 208 1105.4 208C1068.46 208 1037.06 237.374 1025.96 268.059C1024.66 271.103 1023.5 274.23 1022.5 277.43C1016.1 276.822 1008.32 276.885 999.82 276.954L999.818 276.954C997.011 276.977 994.125 277 991.184 277C964.035 277 945.686 290.2 942.035 305.5C939.687 315.396 939.566 322.28 941.07 327Z" fill="white"/>
<g opacity="0.5" clip-path="url(#clip3)">
<path d="M343.079 367.1C343.079 331.2 377.979 302 421.079 302C468.779 302 523.579 332.4 526.679 371.7C526.879 374.4 525.579 375.9 524.279 376.9C523.079 377.7 521.679 378.1 520.279 378.1H350.479C346.379 378 343.079 374.7 343.079 370.6V367.1Z" fill="white"/>
</g>
<g clip-path="url(#clip4)">
<path d="M843.579 443.8C853.179 444.1 861.079 454.4 865.479 462.2C867.379 465.6 872.179 465.3 874.079 462.2C878.579 455 886.679 444.2 895.979 443.8C902.379 443.5 902.379 433.5 895.979 433.8C882.679 434.4 872.079 446.7 865.479 457.2C868.379 457.2 871.279 457.2 874.079 457.2C867.879 446.1 857.079 434.4 843.579 433.9C837.179 433.6 837.179 443.6 843.579 443.8Z" fill="#FF639D"/>
<path d="M783.879 410C792.679 410.3 800.379 418.5 804.779 425.5C806.879 428.9 811.279 428.6 813.379 425.5C817.879 419.2 825.779 410.3 834.279 410C840.679 409.7 840.679 399.7 834.279 400C821.879 400.5 811.579 410.9 804.779 420.5C807.679 420.5 810.579 420.5 813.379 420.5C806.979 410.3 796.479 400.5 783.879 400C777.479 399.8 777.479 409.8 783.879 410Z" fill="#FF639D"/>
</g>
<g clip-path="url(#clip5)">
<path d="M374.879 444C382.779 444.3 389.079 453.2 392.579 459.5C394.379 462.9 399.279 462.6 401.179 459.5C404.779 453.7 411.379 444.4 418.879 444C425.279 443.7 425.279 433.7 418.879 434C407.279 434.6 398.279 445.3 392.579 454.5C395.479 454.5 398.379 454.5 401.179 454.5C395.879 444.7 386.679 434.5 374.879 434C368.479 433.7 368.479 443.7 374.879 444Z" fill="#FF639D"/>
</g>
</g>
<defs>
<clipPath id="clip0">
<rect width="1258" height="578" fill="white"/>
</clipPath>
<clipPath id="clip1">
<rect width="416.7" height="190.8" fill="white" transform="translate(408.079 396)"/>
</clipPath>
<clipPath id="clip2">
<rect width="273" height="114" fill="white" transform="translate(469.079 434)"/>
</clipPath>
<clipPath id="clip3">
<rect width="183.6" height="76" fill="white" transform="translate(343.079 302)"/>
</clipPath>
<clipPath id="clip4">
<rect width="121.7" height="64.6" fill="white" transform="translate(779.079 400)"/>
</clipPath>
<clipPath id="clip5">
<rect width="53.6" height="28" fill="white" transform="translate(370.079 434)"/>
</clipPath>
</defs>
</svg>
