<?xml version="1.0" encoding="utf-8"?>
<!-- Generator: Adobe Illustrator 24.0.3, SVG Export Plug-In . SVG Version: 6.00 Build 0)  -->
<svg version="1.1" id="Layer_1" xmlns="http://www.w3.org/2000/svg" xmlns:xlink="http://www.w3.org/1999/xlink" x="0px" y="0px"
	 viewBox="0 0 1307 376.5" style="enable-background:new 0 0 1307 376.5;" xml:space="preserve">
<style type="text/css">
	.st0{clip-path:url(#SVGID_2_);}
	.st1{fill:#FF639D;}
	.st2{clip-path:url(#SVGID_4_);}
	.st3{fill:#FFFFFF;}
	.st4{fill:#FFFFFF;stroke:#FFFFFF;stroke-width:0.7;stroke-miterlimit:10;}
	.st5{fill-rule:evenodd;clip-rule:evenodd;fill:#FFFFFF;}
	.st6{opacity:0.5;fill-rule:evenodd;clip-rule:evenodd;fill:#FFFFFF;enable-background:new    ;}
	.st7{clip-path:url(#SVGID_6_);}
	.st8{opacity:0.5;}
	.st9{clip-path:url(#SVGID_8_);}
	.st10{clip-path:url(#SVGID_10_);}
	.st11{opacity:0.7;fill-rule:evenodd;clip-rule:evenodd;fill:#FFFFFF;enable-background:new    ;}
</style>
<title>footer_sun_clouds</title>
<g>
	<defs>
		<rect id="SVGID_1_" x="433" y="183" width="416.7" height="193.5"/>
	</defs>
	<clipPath id="SVGID_2_">
		<use xlink:href="#SVGID_1_"  style="overflow:visible;"/>
	</clipPath>
	<g class="st0">
		<path class="st1" d="M641.3,379.2c-65,0-130-0.3-195.1,0.3c-11.8,0.1-14-4-12.9-14.6c9.8-89.4,78.9-162.1,167.5-175.6
			c70.8-10.9,134.5,4.1,188.2,53.5c36.6,33.8,56.1,76.4,60.6,126.2c0.9,10.3-4.8,10.2-12,10.2C772.2,379.2,706.7,379.2,641.3,379.2z
			"/>
		<g>
			<defs>
				<rect id="SVGID_3_" x="497" y="221.5" width="273" height="115.6"/>
			</defs>
			<clipPath id="SVGID_4_">
				<use xlink:href="#SVGID_3_"  style="overflow:visible;"/>
			</clipPath>
			<g class="st2">
				<path class="st3" d="M560.5,253.1c-2.3-6.3-3.4-9.5-5.8-15.9c4.6-1.8,6.9-2.5,11.5-4.1c0.3,1.1,0.5,1.7,0.9,2.8
					c-3.2,1-4.8,1.6-8,2.7c0.5,1.5,0.8,2.3,1.3,3.8c2.7-1,4-1.4,6.7-2.3c0.3,1.1,0.5,1.7,0.9,2.8c-2.7,0.9-4,1.3-6.6,2.3
					c0.5,1.6,0.8,2.3,1.4,3.9c3-1.1,4.6-1.7,7.7-2.6c0.3,1.1,0.5,1.7,0.9,2.8C566.9,250.7,564.8,251.4,560.5,253.1z"/>
				<path class="st3" d="M584.3,245.5c-1.8-1.9-2.8-2.9-4.7-4.8l-1.7,6.6c-1.5,0.4-2.2,0.6-3.7,1c1-3.9,1.6-6,2.8-9.8
					c-2.8-2.6-4.3-3.9-7.3-6.4c1.5-0.4,2.3-0.7,4-1.1c1.8,1.8,2.7,2.6,4.5,4.4l1.7-6.1c1.5-0.4,2.3-0.6,4-1c-1.3,3.7-2,5.5-3.2,9.3
					c3,2.8,4.5,4.2,7.3,7.1C586.5,244.9,585.8,245.1,584.3,245.5z"/>
				<path class="st3" d="M597.1,236.1c-1.3,0.3-2,0.3-3.3,0.6c0.5,2.5,0.8,3.8,1.2,6.2c-1.3,0.3-2,0.4-3.3,0.7
					c-1.4-6.6-2.1-9.9-3.5-16.5c2.8-0.6,4.1-0.9,7-1.4c3.7-0.7,6.3,1.3,6.7,4.1S600.7,235.5,597.1,236.1z M595.7,228.7
					c-1.3,0.3-2,0.3-3.3,0.6c0.3,1.8,0.5,2.7,0.9,4.6c1.3-0.3,1.9-0.4,3.2-0.6c1.3-0.1,2.3-1.2,2.2-2.5c0-0.1,0-0.1,0-0.2
					c-0.2-1.2-1.3-2.1-2.5-1.9C595.9,228.7,595.8,228.7,595.7,228.7L595.7,228.7z"/>
				<path class="st3" d="M616.8,239.7c-0.5-1.1-0.8-1.8-1.3-2.9c-2.4,0.3-3.6,0.4-6,0.8c-0.3,1.2-0.3,1.8-0.6,3
					c-1.4,0.2-2.1,0.3-3.4,0.5c1.5-7.1,2.2-10.6,4-17.6c1.1-0.2,1.6-0.2,2.8-0.4c3.4,6.4,5,9.6,8.1,16.1
					C618.8,239.4,618.1,239.5,616.8,239.7z M611.4,228.3c-0.6,2.5-0.9,3.9-1.5,6.4c1.7-0.3,2.6-0.3,4.3-0.5
					C613.1,231.8,612.6,230.6,611.4,228.3z"/>
				<path class="st3" d="M634.1,238.5c-2.8-4.1-4.2-6.1-7.2-10.1c0.3,4.1,0.3,6.2,0.6,10.3c-1.3,0.1-2,0.1-3.3,0.2
					c-0.4-6.8-0.7-10.1-1.2-16.8c1.3-0.1,1.9-0.2,3.2-0.2c3.1,3.9,4.6,6,7.5,10c-0.1-4.1-0.2-6.2-0.3-10.3c1.4,0,2.2-0.1,3.5-0.1
					c0.1,6.8,0.2,10.1,0.3,16.9C635.9,238.5,635.3,238.5,634.1,238.5z"/>
				<path class="st3" d="M653.4,237.2c-1.3,1-2.9,1.5-4.6,1.4c-2.4-0.1-3.7-0.1-6.1-0.2c0.1-6.7,0.1-10.1,0.2-16.9
					c2.6,0,4,0.1,6.5,0.2c1.7,0,3.4,0.7,4.7,1.8c1.9,2,1.5,4.3,1.4,6.8C655.4,232.9,655.5,235.4,653.4,237.2z M651.6,225.7
					c-0.6-0.8-1.6-1.2-2.6-1.2c-1,0-1.5-0.1-2.7-0.1c-0.1,4.4-0.2,6.6-0.3,11c0.8,0,1.7,0,2.5,0.1c1,0.1,1.9-0.3,2.6-1
					c0.7-0.7,0.9-1.9,1-4.5C652.2,227.6,652.3,226.5,651.6,225.7z"/>
				<path class="st3" d="M674.9,234.1c-0.4,2.7-0.6,4.1-1,6.8l-3.3-0.4c0.3-2.7,0.5-4.1,1-6.8c-1.5-4.2-2.4-6.3-4.1-10.5l3.8,0.4
					c1,2.9,1.5,4.3,2.4,7.2c1.6-2.5,2.5-3.8,4.2-6.2c1.5,0.3,2.3,0.3,3.8,0.6C678.9,228.7,677.5,230.5,674.9,234.1z"/>
				<path class="st3" d="M693,242.9c-3,1.8-6.9,0.9-9-1.9c-1.4-2-1-4.1-0.4-6.9c0.5-2.8,0.9-5,2.9-6.3c1.6-0.9,3.4-1.2,5.2-0.8
					c1.8,0.3,3.4,1.4,4.4,2.9c1.4,2.1,0.9,4.1,0.2,7C695.5,239.8,695,241.7,693,242.9z M693,231.2c-0.5-0.7-1.2-1.2-2-1.4
					c-0.8-0.2-1.7,0-2.4,0.4c-0.8,0.5-1.1,1.3-1.7,4.5s-0.6,4.1-0.1,4.8c0.4,0.7,1.2,1.2,2,1.3c0.8,0.2,1.6,0,2.3-0.4
					c0.8-0.5,1.1-1.2,1.9-4.5C693.8,232.7,693.5,232.1,693,231.2z"/>
				<path class="st3" d="M704.9,248.1c-3.3-1-5.4-4.1-4.6-7.5c1.1-4.3,1.7-6.4,2.8-10.7c1.4,0.3,2.1,0.5,3.5,1
					c-1.2,4.2-1.7,6.3-2.9,10.6c-0.6,1.5,0.2,3.2,1.6,3.7c0.1,0.1,0.3,0.1,0.4,0.1c1.5,0.5,3.1-0.2,3.7-1.8c0-0.1,0.1-0.2,0.1-0.3
					c1.3-4.2,1.9-6.3,3.2-10.5c1.4,0.4,2.1,0.6,3.4,1.1c-1.4,4.2-2.1,6.3-3.4,10.5C711.6,247.8,708.3,249.2,704.9,248.1z"/>
				<path class="st3" d="M724.7,254.9c-0.3-3-0.4-4.6-0.8-7.5l-2.3-0.9c-1,2.5-1.4,3.8-2.3,6.3c-1.3-0.4-1.9-0.7-3.2-1.1
					c2.2-6.4,3.3-9.6,5.5-16c2.8,1,4,1.5,6.8,2.5c3.5,1.4,4.7,4.5,3.6,7c-0.7,1.9-2.6,3.1-4.7,2.9c0.4,3.3,0.6,5,0.9,8.2
					C726.9,255.9,726.2,255.5,724.7,254.9z M727.3,241c-1.3-0.5-1.9-0.7-3.1-1.2c-0.6,1.7-1,2.5-1.5,4.2c1.2,0.4,1.8,0.7,3.1,1.2
					c1.5,0.5,2.7,0.1,3.2-1.1C729.3,242.8,728.6,241.4,727.3,241C727.3,241,727.3,241,727.3,241L727.3,241z"/>
				<path class="st4" d="M565.2,295.1l3.9,2.2l-1.9,3.4c-6.2,9.8-12.8,9.6-19.5,6.7l-8.3,14.6l-3.9-2.3l8.2-14.4l-4.3-2.6
					c-3.3-2.1-6.7-4-10.2-5.7l-7.5,13.1c-0.3,0.4-6.7,13.2-15.8,13.2c-0.4,0-0.7-0.1-1-0.1c-4.6-0.6-7.3-3.9-7.6-9.2
					c-0.3-8.4,6.3-20.9,19.3-23.3c3.5-0.4,7-0.1,10.3,1l14.9-26.3l3.9,2.3L531.3,293c3.6,1.7,7,3.6,10.3,5.8l4.2,2.5l16.6-29.2
					c2.1-3.8,7.8-10.1,16.6-7.9l-1.2,4.4c-7.5-2.1-11.4,5.4-11.5,5.7l-16.4,29.1c5.4,2.5,9.3,1.7,13.5-5.1L565.2,295.1z
					 M524.6,295.6c-1.6-0.4-3.2-0.6-4.8-0.6c-0.8,0-1.7,0.1-2.5,0.2c-10.3,1.8-15.8,12.1-15.5,18.6c0.1,2,0.8,4.6,3.5,4.8
					c5.5,0.7,10.8-7.5,12.3-10.7L524.6,295.6z"/>
				<path class="st4" d="M590.9,309c-1.5,0-2.9-0.5-4.1-1.2c-2.1,3.7-4.7,6.8-8.3,8.5c-1.4,0.7-3,1-4.6,1c-1.8,0-3.5-0.4-5.1-1.2
					c-2.8-1.1-5-3.5-5.9-6.5c-1.5-4.6-0.1-10.7,4.2-18.3c4.4-7.9,7.8-10.1,12.1-11c3.8-0.8,7.7,0.3,10.5,3c2,2,3.8,6.2,1.5,13.3
					c-0.4,1.3-1.3,3.9-2.5,6.8c0.7,0.5,1.5,0.8,2.3,0.8c2,0,3.9-1.2,4.7-3l0.4-0.8c2.6-4.3,3.1-5.5,3.2-5.5l3.9,2.1
					c-1,2-2,3.9-3.2,5.8l-0.4,0.8c-1.7,3.2-5,5.2-8.5,5.3h-0.2L590.9,309z M576.5,312.1c2.7-1.3,5-4.1,6.9-7.7l-0.3-0.5
					c-1.8-4.1-0.2-9,3.7-11.2l0.9-0.4c0.4-2-0.1-4.1-1.3-5.7c-1.3-1.2-3-1.9-4.7-1.8c-0.5,0-1,0.1-1.5,0.2c-2.2,0.4-4.8,1.1-9.2,8.8
					c-3.6,6.4-4.8,11.3-3.8,14.6c0.6,1.7,1.9,3,3.5,3.7C572.5,312.9,574.7,312.9,576.5,312.1L576.5,312.1z"/>
				<path class="st4" d="M625.9,298.1c0.6-1.1,1.2-2.1,1.7-3l3.9,2.2c-0.6,1-1.2,2-1.7,3l-4.1,7.5c-3.3,5.8-6.8,7.7-9.4,8.3
					c-0.6,0.1-1.2,0.2-1.8,0.2c-1.4,0-2.8-0.4-4-1.1c-5.6-3.4-3.2-12-0.9-16.4l4-7.3c-1.2-0.7-2.3-1.7-3.1-2.9
					c-0.4-0.7-0.9-1.3-1.2-2l-6.6,11.8l-3.3-3.4l11.3-19.9l3.9,2.3c-3.6,7.5,1.9,10.3,5.2,12.3l-6.4,11.3c-0.9,1.7-3.6,8.4-0.7,10.3
					c0.7,0.5,1.5,0.6,2.3,0.3c1.3-0.3,3.9-1.6,6.5-6.1L625.9,298.1z"/>
				<path class="st4" d="M644.4,307.8c-2.8,4.6-5.9,7.4-9.5,8.1c-0.7,0.2-1.3,0.3-2,0.3c-2.2,0-4.4-0.7-6.2-1.9
					c-5.2-3.9-3.3-11.6-1.3-15.4L635,282l3.9,2.3l-9.5,16.7c-0.6,1.2-1.1,2.5-1.3,3.9c-0.4,2-0.5,4.3,1.3,5.6c1.3,1,3,1.4,4.6,1.1
					c2.3-0.5,4.5-2.6,6.5-6.1c0.6-0.8,1-1.6,1.4-2.5l0.3-0.5c1.3-2.1,2.2-4.1,2.9-5.3l1.2-2l3.9,2.2l-1.2,2.2
					c-0.8,1.3-1.7,3.2-3,5.3l-0.3,0.5L644.4,307.8z M643.5,277.1c-0.1,1.8-1.6,3.1-3.3,3c-1.6-0.1-2.9-1.4-3-3
					c-0.1-1.8,1.2-3.3,3-3.4c1.7-0.1,3.2,1.2,3.3,3C643.5,276.9,643.5,277,643.5,277.1z"/>
				<path class="st4" d="M683.4,297.2c-0.9,1.8-1.9,3.6-3,5.3l-0.4,0.8c-7.2,12.5-14.7,14.8-21.8,17.1c-0.4,0.2-0.8,0.3-1.2,0.4
					c-1.1,5.2-6.8,16.1-13.3,16.1h-0.7c-2.1-0.3-3.9-1.8-4.5-3.9c-1-3.3,0.7-6.8,4.2-9.8c3.1-2.5,6.5-4.4,10.2-5.7
					c0.2-3.1-0.5-6.1-2.2-8.8l0.1-1c6.4-2.5,13.3-10.3,14.4-16.1c0.4-1.7,0-3.5-1.3-4.6c-1.5-1.3-3-1.8-4.3-1.6
					c-2.8,0.5-5,4.1-5.7,5.4l-4.3,7.7l-3.4-3.4l3.7-6.5c0.2-0.6,3.4-6.6,8.8-7.7c1.9-0.3,4.9-0.3,8.2,2.7c2.6,2.1,3.7,5.6,2.8,8.9
					c-1.1,6.5-7.2,13.5-13.3,17.6c0.7,1.9,1.1,3.9,1.1,5.9c6.7-2,12.5-4.3,18.7-14.8l0.4-0.8l2.4-4.2l0.5-1L683.4,297.2z
					 M651.7,322.8c-2.2,1-4.3,2.3-6.1,3.9c-2.3,1.9-3.1,3.9-2.8,5c0.3,0.6,0.5,0.7,0.8,0.7C646.5,332.7,650.6,325,651.7,322.8z"/>
				<path class="st4" d="M705.2,309c-1.5,0-2.9-0.5-4.1-1.2c-2.1,3.7-4.7,6.8-8.3,8.5c-1.4,0.7-3,1-4.6,1c-1.8,0-3.5-0.4-5.1-1.2
					c-2.8-1.1-5-3.5-5.9-6.5c-1.5-4.6-0.1-10.7,4.2-18.3c4.4-7.9,7.8-10.1,12.1-11c3.8-0.8,7.7,0.3,10.5,3c2,2,3.8,6.2,1.5,13.3
					c-0.4,1.3-1.3,3.9-2.5,6.8c0.7,0.5,1.5,0.8,2.3,0.8c2,0,3.9-1.2,4.7-3l0.4-0.8c2.6-4.3,3.1-5.5,3.2-5.5l3.9,2.1
					c-1,2-2,3.9-3.2,5.8l-0.4,0.9c-1.7,3.2-4.9,5.2-8.5,5.3L705.2,309L705.2,309z M690.9,312.1c2.7-1.3,5-4.1,6.9-7.7l-0.3-0.5
					c-1.8-4.1-0.2-9,3.7-11.2l0.9-0.4c0.4-2-0.1-4.1-1.3-5.7c-1.3-1.2-3-1.9-4.7-1.8c-0.5,0-1,0.1-1.5,0.2c-2.2,0.4-4.8,1.1-9.2,8.8
					c-3.6,6.4-4.8,11.3-3.8,14.6c0.6,1.7,1.9,3,3.5,3.7C686.8,312.9,689,312.9,690.9,312.1L690.9,312.1z"/>
				<path class="st4" d="M753,297.3l-0.7,1.2c-0.6,1-1.3,2.2-2.5,4.5l-0.4,0.8c-0.7,1.3-7.1,12.5-14,12.5c-3.9,0-5.8-2.1-6.4-3.4
					c-2-3.7-0.7-8.9,1.5-12.5c3.7-6.4,5.2-10.7,4.4-13c-0.3-0.8-1-1.4-1.9-1.7c-5.8-2-13.2,7.6-15.4,11.7l-10.1,17.8l-3.9-2.3
					l17.6-30.9l2.7,1.6c3.3-2.3,6.9-3.6,10.7-2.2c2.1,0.7,3.8,2.4,4.6,4.5c1.3,3.8-0.1,9-4.7,16.8c-1.7,3-2.4,6.3-1.5,7.9
					c0.3,0.3,0.6,1.1,2.5,1.1c3.3,0,8.3-6.8,10.1-10.3l0.5-0.8c1.3-2.1,1.9-3.5,2.5-4.4l0.6-1.2L753,297.3z"/>
				<path class="st4" d="M764.9,297.4c2.7,3.7,5.8,7.6,4.4,12.8c-1,3.6-3.8,6.3-7.4,7.2c-1.1,0.3-2.2,0.4-3.3,0.4
					c-2.6,0.1-5-0.9-6.9-2.6c-1.9-2.1-2.6-5.2-1.6-7.9l4.3,1.3c-0.4,1.2-0.2,2.5,0.6,3.4c1.3,1.3,3.5,1.6,5.8,1
					c2-0.4,3.6-1.9,4.1-3.9c1-3-1.3-5.7-3.6-8.9c-2.1-2.8-4.3-6-4.6-9.7c-0.4,0.6-0.8,1.1-1.1,1.7l-3.4,6.2l-3.4-3.4l2.8-5.1
					c2.2-4.2,8-11,14.8-8.8c0.1,0.1,0.2,0.1,0.3,0.1c0,0.1,0,0.1,0.1,0.1l-0.7,1.8l-0.8,2.5c-0.3-0.1-0.7-0.1-1-0.1
					c-0.6,0-1.2,0.1-1.6,0.4c-0.9,0.5-1.4,1.6-1.6,3.4C761,292.1,762.8,294.7,764.9,297.4z"/>
			</g>
		</g>
	</g>
</g>
<path class="st5" d="M196.2,301.4c0.1-28.2,18.5-53,45.5-61.2c8-2.8,16.5-4.2,25-4.2c30.2,0,55.5,17.5,62.2,41.1
	c0.2,0.8,1,1.3,1.8,1.1c0.1,0,0.1,0,0.2-0.1c7.4-2.4,15.1-3.6,22.8-3.5c32.2,0,58.4,19.9,58.4,44.5c0,0.9,0.7,1.6,1.5,1.6
	c0,0,0,0,0.1,0c2-0.1,3.9-0.1,6-0.1c33.5,0,61.4,7.5,67.4,17.5c7,6.8,11,16.1,11,25.8v3.4c0,4.2-3.4,7.6-7.6,7.6c0,0,0,0,0,0H220
	l-0.3,0.6h-90.3c-4.3-7.4-6.5-15.7-6.5-24.2c0-27.5,23.1-49.8,51.7-49.8c7.6,0,15,1.6,21.9,4.7C196.3,304.6,196.2,303,196.2,301.4z"
	/>
<path class="st6" d="M966,119h261.4c1.1-6.1,1.6-12.3,1.6-18.5c0-35.2-17.5-66.2-43.8-83.6C1170.8,6.4,1151.7,0,1130.3,0
	c-36.9,0-68.3,29.4-79.4,60.1c-1.3,3-2.5,6.2-3.5,9.4c-6.4-0.6-14.2-0.5-22.7-0.5l0,0c-2.8,0-5.7,0-8.6,0
	C989,69,970.6,82.2,967,97.5C964.6,107.4,964.5,114.3,966,119z"/>
<g>
	<defs>
		<rect id="SVGID_5_" x="368" y="92" width="183.6" height="76"/>
	</defs>
	<clipPath id="SVGID_6_">
		<use xlink:href="#SVGID_5_"  style="overflow:visible;"/>
	</clipPath>
	<g class="st7">
		<g class="st8">
			<path class="st3" d="M368,157.1c0-35.9,34.9-65.1,78-65.1c47.7,0,102.5,30.4,105.6,69.7c0.2,2-0.7,4-2.4,5.2
				c-1.2,0.8-2.6,1.2-4,1.2H375.4c-4.1-0.1-7.4-3.4-7.4-7.5V157.1z"/>
		</g>
	</g>
</g>
<g>
	<defs>
		<rect id="SVGID_7_" x="804" y="188" width="121.7" height="64.6"/>
	</defs>
	<clipPath id="SVGID_8_">
		<use xlink:href="#SVGID_7_"  style="overflow:visible;"/>
	</clipPath>
	<g class="st9">
		<path class="st1" d="M868.5,231.8c9.6,0.3,17.5,10.6,21.9,18.4c1.9,3.4,6.7,3.1,8.6,0c4.5-7.2,12.6-18,21.9-18.4
			c6.4-0.3,6.4-10.3,0-10c-13.3,0.6-23.9,12.9-30.5,23.4h8.6c-6.2-11.1-17-22.8-30.5-23.3C862.1,221.6,862.1,231.6,868.5,231.8z"/>
		<path class="st1" d="M808.8,198c8.8,0.3,16.5,8.5,20.9,15.5c2.1,3.4,6.5,3.1,8.6,0c4.5-6.3,12.4-15.2,20.9-15.5
			c6.4-0.3,6.4-10.3,0-10c-12.4,0.5-22.7,10.9-29.5,20.5h8.6c-6.4-10.2-16.9-20-29.5-20.5C802.4,187.8,802.4,197.8,808.8,198z"/>
	</g>
</g>
<g>
	<defs>
		<rect id="SVGID_9_" x="395" y="222" width="53.6" height="28"/>
	</defs>
	<clipPath id="SVGID_10_">
		<use xlink:href="#SVGID_9_"  style="overflow:visible;"/>
	</clipPath>
	<g class="st10">
		<path class="st1" d="M399.8,232c7.9,0.3,14.2,9.2,17.7,15.5c1.8,3.4,6.7,3.1,8.6,0c3.6-5.8,10.2-15.1,17.7-15.5
			c6.4-0.3,6.4-10.3,0-10c-11.6,0.6-20.6,11.3-26.3,20.5h8.6c-5.3-9.8-14.5-20-26.3-20.5C393.4,221.7,393.4,231.7,399.8,232z"/>
	</g>
</g>
<path class="st11" d="M0,268.5c0,45.7,26.6,87.3,68.1,106.5H383v-78h-0.2c0-1.2,0.1-2.4,0.1-3.6c0-42.4-31.6-76.7-70.7-76.7
	c-5.3,0-10.5,0.6-15.6,1.9C285,197.2,264.6,183,241.4,183c-11.7,0-23.1,3.6-32.7,10.3C186.2,166.4,153,150.9,118,151
	C52.8,151,0,203.6,0,268.5z"/>
<path class="st5" d="M1270,376.5c23.8-24.1,37.1-56.5,37-90.4c0-70.9-57.2-128.4-127.8-128.4c-61,0-112,42.9-124.8,100.4
	c-16.2-14.4-37-22.3-58.7-22.3c-42.4,0-77.8,29.9-86.6,69.9c-10.4-7-22.7-10.7-35.2-10.7c-35.3,0-63.9,28.9-63.9,64.5
	c0,4.9,0.5,9.7,1.6,14.5c0.3,1.5,1.7,2.5,3.2,2.5L1270,376.5z"/>
</svg>
