<svg width="146" height="30" viewBox="0 0 146 30" fill="none" xmlns="http://www.w3.org/2000/svg">
<path d="M16.0759 4.36V0.64H0.745894V4.36H6.32589V22H10.4959V4.36H16.0759ZM33.5446 22V18.28H23.6446V13.09H32.0746V9.37H23.6446V4.36H33.5446V0.64H19.4746V22H33.5446ZM52.6386 15.43H48.4086C47.9586 17.26 46.8186 18.46 44.8086 18.46C43.6686 18.46 42.7686 18.1 42.1386 17.35C41.2686 16.42 41.0886 15.46 41.0886 11.32C41.0886 7.18 41.2686 6.22 42.1386 5.29C42.7686 4.54 43.6686 4.18 44.8086 4.18C46.8186 4.18 47.9586 5.38 48.4086 7.21H52.6386C51.9186 2.86 48.8886 0.459998 44.7786 0.459998C42.4986 0.459998 40.5786 1.24 39.0186 2.8C38.0886 3.73 37.5186 4.78 37.2786 6.01C37.0386 7.21 36.9186 8.98 36.9186 11.32C36.9186 13.66 37.0386 15.43 37.2786 16.63C37.5186 17.83 38.0886 18.91 39.0186 19.84C40.5786 21.4 42.4986 22.18 44.7786 22.18C48.8586 22.18 51.9186 19.78 52.6386 15.43ZM71.8121 22V0.64H67.6421V9.37H60.4121V0.64H56.2421V22H60.4121V13.06H67.6421V22H71.8121ZM93.1293 22V0.64H88.9593V13.72L80.4993 0.64H76.7793V22H80.9493V8.89L89.4093 22H93.1293ZM102.277 22V0.64H98.1074V22H102.277ZM122.248 15.43H118.018C117.568 17.26 116.428 18.46 114.418 18.46C113.278 18.46 112.378 18.1 111.748 17.35C110.878 16.42 110.698 15.46 110.698 11.32C110.698 7.18 110.878 6.22 111.748 5.29C112.378 4.54 113.278 4.18 114.418 4.18C116.428 4.18 117.568 5.38 118.018 7.21H122.248C121.528 2.86 118.498 0.459998 114.388 0.459998C112.108 0.459998 110.188 1.24 108.628 2.8C107.698 3.73 107.128 4.78 106.888 6.01C106.648 7.21 106.528 8.98 106.528 11.32C106.528 13.66 106.648 15.43 106.888 16.63C107.128 17.83 107.698 18.91 108.628 19.84C110.188 21.4 112.108 22.18 114.388 22.18C118.468 22.18 121.528 19.78 122.248 15.43ZM142.029 22L134.229 0.64H130.959L123.189 22H127.539L128.829 18.22H136.419L137.679 22H142.029ZM135.309 14.71H129.999L132.699 6.94L135.309 14.71Z" fill="black"/>
<path d="M4.01601 25.7778H143.328L145.016 29.6667H4.01601V25.7778Z" fill="url(#paint0_linear)"/>
<defs>
<linearGradient id="paint0_linear" x1="4.13086" y1="29.6667" x2="145.131" y2="29.6666" gradientUnits="userSpaceOnUse">
<stop stop-color="#00FFFF"/>
<stop offset="0.489583" stop-color="#B6A1C4"/>
<stop offset="1" stop-color="#FF6B98"/>
</linearGradient>
</defs>
</svg>
